<?xml version="1.0" encoding="utf-8"?>
<!-- Uploaded to: SVG Repo, www.svgrepo.com, Generator: SVG Repo Mixer Tools -->
<svg width="800px" height="800px" viewBox="0 0 1024 1024" class="icon"  version="1.1" xmlns="http://www.w3.org/2000/svg"><path d="M106.666667 512c0 403.2 315.733333 405.333333 362.666666 405.333333h85.333334S514.133333 565.333333 106.666667 512z" fill="#2E7D32" /><path d="M469.333333 554.666667h85.333334v362.666666h-85.333334z" fill="#388E3C" /><path d="M725.333333 341.333333c0 108.8-110.933333 174.933333-170.666666 174.933334s-42.666667-66.133333-42.666667-174.933334 106.666667-196.266667 106.666667-196.266666 106.666667 87.466667 106.666666 196.266666zM298.666667 341.333333c0 108.8 110.933333 174.933333 170.666666 174.933334s42.666667-66.133333 42.666667-174.933334-106.666667-196.266667-106.666667-196.266666-106.666667 87.466667-106.666666 196.266666z" fill="#C62828" /><path d="M512 576c-46.933333-34.133333-40.533333-96 51.2-187.733333C657.066667 294.4 682.666667 149.333333 682.666667 149.333333s106.666667 72.533333 106.666666 192c0 125.866667-121.6 234.666667-277.333333 234.666667z" fill="#E53935" /><path d="M512 576c46.933333-34.133333 40.533333-96-51.2-187.733333C366.933333 294.4 341.333333 149.333333 341.333333 149.333333s-106.666667 72.533333-106.666666 192c0 125.866667 121.6 234.666667 277.333333 234.666667z" fill="#E53935" /><path d="M640 341.333333c0 130.133333-57.6 234.666667-128 234.666667s-128-104.533333-128-234.666667 128-234.666667 128-234.666666 128 104.533333 128 234.666666z" fill="#F44336" /><path d="M469.333333 917.333333h85.333334c46.933333 0 362.666667-2.133333 362.666666-405.333333-407.466667 53.333333-448 405.333333-448 405.333333z" fill="#4CAF50" /></svg>