<?xml version="1.0" standalone="no"?>
<!DOCTYPE svg PUBLIC "-//W3C//DTD SVG 20010904//EN"
 "http://www.w3.org/TR/2001/REC-SVG-20010904/DTD/svg10.dtd">
<svg version="1.0" xmlns="http://www.w3.org/2000/svg"
 width="512.000000pt" height="512.000000pt" viewBox="0 0 512.000000 512.000000"
 preserveAspectRatio="xMidYMid meet">

<g transform="translate(0.000000,512.000000) scale(0.100000,-0.100000)"
fill="#000000" stroke="none">
<path d="M0 2560 l0 -2560 2560 0 2560 0 0 2560 0 2560 -2560 0 -2560 0 0
-2560z m3123 1904 c193 -44 346 -164 436 -341 49 -98 62 -162 68 -335 l6 -158
217 0 c119 0 243 -5 276 -11 121 -22 229 -96 291 -200 66 -110 63 -58 63
-1284 0 -1212 2 -1169 -57 -1277 -53 -98 -169 -183 -281 -207 -38 -8 -489 -11
-1585 -11 -1674 0 -1589 -3 -1699 57 -98 53 -183 169 -207 281 -8 37 -11 379
-11 1160 0 1222 -3 1171 63 1281 62 104 170 178 291 200 33 6 157 11 276 11
l217 0 6 158 c6 175 19 237 71 340 84 167 236 288 419 333 64 16 129 18 570
18 425 1 509 -1 570 -15z"/>
<path d="M2045 4033 c-47 -24 -86 -64 -106 -108 -15 -32 -19 -65 -19 -167 l0
-128 640 0 640 0 0 125 c0 138 -10 178 -58 228 -15 16 -44 37 -64 48 -35 18
-64 19 -520 19 -420 -1 -487 -3 -513 -17z"/>
<path d="M2350 2560 l0 -210 -215 0 -215 0 0 -215 0 -215 215 0 215 0 0 -215
0 -215 210 0 210 0 0 215 0 215 215 0 215 0 0 215 0 215 -215 0 -215 0 0 210
0 210 -210 0 -210 0 0 -210z"/>
</g>
</svg>
