<?xml version="1.0" standalone="no"?>
<!DOCTYPE svg PUBLIC "-//W3C//DTD SVG 20010904//EN"
 "http://www.w3.org/TR/2001/REC-SVG-20010904/DTD/svg10.dtd">
<svg version="1.0" xmlns="http://www.w3.org/2000/svg"
 width="512.000000pt" height="512.000000pt" viewBox="0 0 512.000000 512.000000"
 preserveAspectRatio="xMidYMid meet">

<g transform="translate(0.000000,512.000000) scale(0.100000,-0.100000)"
fill="#000000" stroke="none">
<path d="M2085 4474 c-709 -76 -1277 -596 -1417 -1297 -32 -161 -32 -433 0
-594 64 -320 215 -605 439 -829 230 -230 503 -376 833 -445 154 -33 439 -33
597 -1 180 36 371 108 507 191 37 22 71 41 74 41 4 0 198 -191 432 -423 483
-481 471 -472 610 -471 100 0 160 24 225 89 65 65 89 125 89 225 0 141 10 128
-473 613 -411 412 -425 428 -412 450 107 169 183 359 223 562 32 157 32 431 0
592 -129 648 -623 1144 -1267 1273 -98 20 -368 34 -460 24z m325 -489 c235
-35 449 -144 620 -315 333 -333 423 -838 225 -1258 -62 -131 -127 -224 -225
-322 -333 -332 -838 -423 -1256 -226 -348 165 -583 476 -639 846 -73 477 164
942 594 1164 213 110 443 148 681 111z"/>
</g>
</svg>
